<svg width="16" height="16" viewBox="0 0 16 16" fill="none" xmlns="http://www.w3.org/2000/svg">
<path d="M7.99999 15.9922C12.3765 15.9922 16 12.3626 16 7.9961C16 3.62176 12.3686 0 7.99215 0C3.62353 0 0 3.62176 0 7.9961C0 12.3626 3.63136 15.9922 7.99999 15.9922ZM7.99999 14.6595C4.29803 14.6595 1.34117 11.6962 1.34117 7.9961C1.34117 4.29594 4.29019 1.33269 7.99215 1.33269C11.6941 1.33269 14.6666 4.29594 14.6666 7.9961C14.6666 11.6962 11.7019 14.6595 7.99999 14.6595Z" fill="black" fill-opacity="0.85"/>
<path d="M5.7804 11.1475C5.7804 11.5081 6.03138 11.759 6.4 11.759H6.72941V12.3783C6.72941 12.6056 6.88627 12.7624 7.10588 12.7624C7.32549 12.7624 7.48235 12.6056 7.48235 12.3783V11.759H7.99215V12.3783C7.99215 12.6056 8.15682 12.7624 8.36861 12.7624C8.58826 12.7624 8.75291 12.6056 8.75291 12.3783V11.7355C10.0549 11.5944 10.8157 10.8419 10.8157 9.68944C10.8157 8.80361 10.2902 8.14511 9.48232 7.90208C10.0627 7.61987 10.4627 7.00056 10.4627 6.33422C10.4627 5.36215 9.7961 4.65661 8.75291 4.49982V3.86483C8.75291 3.6375 8.58826 3.48071 8.36861 3.48071C8.15682 3.48071 7.99215 3.6375 7.99215 3.86483V4.46847H7.48235V3.86483C7.48235 3.6375 7.32549 3.48071 7.10588 3.48071C6.88627 3.48071 6.72941 3.6375 6.72941 3.86483V4.46847H6.4C6.03921 4.46847 5.7804 4.71933 5.7804 5.08777V11.1475ZM6.78432 10.8419V8.45867H8.10984C9.23134 8.45867 9.81176 8.85851 9.81176 9.65026C9.81176 10.4264 9.25487 10.8261 8.19609 10.834L6.78432 10.8419ZM6.78432 7.54147V5.37783H8.1255C8.97257 5.37783 9.45878 5.74627 9.45878 6.41261C9.45878 7.14951 8.90984 7.55715 7.90588 7.54932L6.78432 7.54147Z" fill="black" fill-opacity="0.85"/>
</svg>
